<svg width="24" height="24" viewBox="0 0 24 24" fill="none" xmlns="http://www.w3.org/2000/svg">
<g clip-path="url(#clip0_46_16)">
<path d="M11.428 20.391C10.5847 20.391 9.726 20.2837 8.852 20.069C7.99333 19.8697 7.27267 19.6013 6.69 19.264L6.828 16.067H7.495L8.208 17.654C8.42267 18.0987 8.645 18.4667 8.875 18.758C9.105 19.0493 9.41167 19.2717 9.795 19.425C10.0557 19.5323 10.301 19.609 10.531 19.655C10.7763 19.6857 11.0447 19.701 11.336 19.701C12.2713 19.701 13.0073 19.4633 13.544 18.988C14.096 18.4973 14.372 17.8533 14.372 17.056C14.372 16.3353 14.1803 15.768 13.797 15.354C13.429 14.94 12.831 14.5413 12.003 14.158L11.06 13.744C9.772 13.1767 8.75233 12.5173 8.001 11.766C7.265 11.0147 6.897 10.018 6.897 8.776C6.897 7.856 7.127 7.074 7.587 6.43C8.06233 5.77067 8.714 5.26467 9.542 4.912C10.37 4.55933 11.336 4.383 12.44 4.383C13.2527 4.383 14.0117 4.49033 14.717 4.705C15.4377 4.91967 16.0663 5.211 16.603 5.579L16.442 8.431H15.775L14.924 6.706C14.6787 6.2 14.441 5.83967 14.211 5.625C13.9963 5.395 13.728 5.24933 13.406 5.188C13.222 5.15733 13.061 5.13433 12.923 5.119C12.8003 5.10367 12.6317 5.096 12.417 5.096C11.6657 5.096 11.014 5.31833 10.462 5.763C9.92533 6.19233 9.657 6.79033 9.657 7.557C9.657 8.293 9.864 8.891 10.278 9.351C10.692 9.811 11.29 10.2173 12.072 10.57L13.107 11.007C14.5943 11.651 15.66 12.341 16.304 13.077C16.948 13.7977 17.27 14.7253 17.27 15.86C17.27 17.2093 16.7563 18.3057 15.729 19.149C14.717 19.977 13.2833 20.391 11.428 20.391Z" fill="white"/>
<path d="M4.87273 19.9192C4.87273 19.9192 3.68485 21.404 4.08081 21.899C4.47678 22.3939 5.66465 20.9091 5.66465 20.9091L19.1273 4.08081C19.1273 4.08081 20.3152 2.59595 19.9192 2.10101C19.5232 1.60606 18.3354 3.09091 18.3354 3.09091L4.87273 19.9192Z" fill="#DC2626" stroke="white" stroke-width="0.5"/>
<path d="M3.02423 17.7413C3.03065 17.5447 3.14872 17.3598 3.35247 17.2273C3.55621 17.0948 3.82893 17.0255 4.11064 17.0347C4.81877 17.0579 5.9895 17.8382 5.9895 17.8382C5.9895 17.8382 4.77031 18.5405 4.06219 18.5174C3.78048 18.5082 3.51286 18.4212 3.3182 18.2757C3.12355 18.1302 3.0178 17.9379 3.02423 17.7413Z" fill="#DC2626"/>
<path d="M7.62595 22.0277C7.49361 22.0361 7.3619 21.9689 7.25979 21.8407C7.15768 21.7126 7.09354 21.5341 7.08148 21.3445C7.05116 20.8678 7.49899 20.0317 7.49899 20.0317C7.49899 20.0317 8.04915 20.8043 8.07947 21.281C8.09153 21.4706 8.05052 21.6558 7.96547 21.7958C7.88042 21.9359 7.75829 22.0193 7.62595 22.0277Z" fill="#DC2626"/>
<path d="M20.8924 5.68534C20.9324 5.8671 20.8674 6.06422 20.7116 6.23332C20.5557 6.40243 20.3219 6.52968 20.0614 6.58707C19.4068 6.73132 18.151 6.28942 18.151 6.28942C18.151 6.28942 19.1047 5.36065 19.7594 5.21639C20.0198 5.159 20.2855 5.17616 20.498 5.26411C20.7105 5.35205 20.8523 5.50358 20.8924 5.68534Z" fill="#DC2626"/>
<path d="M16.4983 2.04059C16.6305 2.02983 16.7634 2.09473 16.8677 2.22103C16.9721 2.34732 17.0394 2.52467 17.0548 2.71405C17.0936 3.19008 16.6607 4.03399 16.6607 4.03399C16.6607 4.03399 16.0969 3.27128 16.0581 2.79524C16.0427 2.60586 16.0804 2.41996 16.163 2.27844C16.2455 2.13691 16.3662 2.05136 16.4983 2.04059Z" fill="#DC2626"/>
</g>
<defs>
<clipPath id="clip0_46_16">
<rect width="24" height="24" rx="3" fill="white"/>
</clipPath>
</defs>
</svg>
